<?xml version="1.0" standalone="no"?>
<!DOCTYPE svg PUBLIC "-//W3C//DTD SVG 1.1//EN" "http://www.w3.org/Graphics/SVG/1.1/DTD/svg11.dtd" >
<svg xmlns="http://www.w3.org/2000/svg">
<metadata>
Created by FontForge 20120731 at Tue Sep 27 16:11:27 2016
 By admin
</metadata>
<defs>
<font id="iconfont" horiz-adv-x="1024" >
  <font-face 
    font-family="iconfont"
    font-weight="500"
    font-stretch="normal"
    units-per-em="1024"
    panose-1="2 0 6 3 0 0 0 0 0 0"
    ascent="896"
    descent="-128"
    x-height="792"
    bbox="-0.153846 -128.022 4419 896"
    underline-thickness="50"
    underline-position="-100"
    unicode-range="U+0078-E646"
  />
<missing-glyph horiz-adv-x="374" 
d="M34 0v682h272v-682h-272zM68 34h204v614h-204v-614z" />
    <glyph glyph-name=".notdef" horiz-adv-x="374" 
d="M34 0v682h272v-682h-272zM68 34h204v614h-204v-614z" />
    <glyph glyph-name=".null" horiz-adv-x="0" 
 />
    <glyph glyph-name="nonmarkingreturn" horiz-adv-x="341" 
 />
    <glyph glyph-name="x" unicode="x" horiz-adv-x="1001" 
d="M281 543q-27 -1 -53 -1h-83q-18 0 -36.5 -6t-32.5 -18.5t-23 -32t-9 -45.5v-76h912v41q0 16 -0.5 30t-0.5 18q0 13 -5 29t-17 29.5t-31.5 22.5t-49.5 9h-133v-97h-438v97zM955 310v-52q0 -23 0.5 -52t0.5 -58t-10.5 -47.5t-26 -30t-33 -16t-31.5 -4.5q-14 -1 -29.5 -0.5
t-29.5 0.5h-32l-45 128h-439l-44 -128h-29h-34q-20 0 -45 1q-25 0 -41 9.5t-25.5 23t-13.5 29.5t-4 30v167h911zM163 247q-12 0 -21 -8.5t-9 -21.5t9 -21.5t21 -8.5q13 0 22 8.5t9 21.5t-9 21.5t-22 8.5zM316 123q-8 -26 -14 -48q-5 -19 -10.5 -37t-7.5 -25t-3 -15t1 -14.5
t9.5 -10.5t21.5 -4h37h67h81h80h64h36q23 0 34 12t2 38q-5 13 -9.5 30.5t-9.5 34.5q-5 19 -11 39h-368zM336 498v228q0 11 2.5 23t10 21.5t20.5 15.5t34 6h188q31 0 51.5 -14.5t20.5 -52.5v-227h-327z" />
    <glyph glyph-name="uniE600" unicode="&#xe600;" 
d="M907 896h-794q-46 0 -79.5 -33.5t-33.5 -79.5v-794q0 -46 33.5 -79.5t79.5 -33.5h794q46 0 79.5 33.5t33.5 79.5v794q0 46 -33.5 79.5t-79.5 33.5zM255 46q-35 0 -60 25t-25 60t25 60t60 25t60 -25t25 -60t-25 -60t-60 -25zM255 556q-35 0 -60 25t-25 60t25 60t60 25
t60 -25t25 -60t-25 -60t-60 -25zM510 301q-35 0 -60 25t-25 60t25 60t60 25t60 -25t25 -60t-25 -60t-60 -25zM765 46q-35 0 -60 25t-25 60t25 60t60 25t60 -25t25 -60t-25 -60t-60 -25zM765 556q-35 0 -60 25t-25 60t25 60t60 25t60 -25t25 -60t-25 -60t-60 -25z" />
    <glyph glyph-name="uniE601" unicode="&#xe601;" 
d="M512 896l-415 -185v-276q0 -127 53.5 -243.5t149 -199t212.5 -111.5q117 29 212.5 111.5t149 199t53.5 243.5v276zM512 389h323q-19 -144 -107.5 -258.5t-215.5 -153.5v412h-323v263l323 143v-406z" />
    <glyph glyph-name="uniE602" unicode="&#xe602;" 
d="M879 -27q-97 0 -185 61q-84 -59 -184 -59t-185 59q-87 -61 -184 -61h-92v-92h92q94 0 184 46q87 -45 184.5 -45t184.5 45q89 -46 185 -46h92v92h-92zM138 66h3q52 0 100 25.5t84 66.5q37 -41 84.5 -66.5t100 -25.5t100.5 25.5t84 66.5q37 -41 84.5 -66.5t100.5 -25.5h2
l87 308q6 19 -2.5 36t-27.5 23l-59 19v213q0 38 -27 65.5t-65 27.5h-139v138h-277v-138h-138q-38 0 -65 -27.5t-27 -65.5v-213l-60 -19q-19 -6 -27 -23q-9 -18 -3 -36zM233 665h554v-183l-277 91l-277 -91v183z" />
    <glyph glyph-name="uniE603" unicode="&#xe603;" horiz-adv-x="1460" 
d="M871 606h-871v-146h871v146zM871 896h-871v-145h871v145zM1162 315v291h-145v-291h-291v-145h291v-291h145v291h290v145h-290zM0 170h581v145h-581v-145z" />
    <glyph glyph-name="uniE604" unicode="&#xe604;" horiz-adv-x="1242" 
d="M0 242h290v291h-290v-291zM0 -121h290v291h-290v-291zM0 606h290v290h-290v-290zM363 242h872v291h-872v-291zM363 -121h872v291h-872v-291zM363 896v-290h872v290h-872z" />
    <glyph glyph-name="uniE605" unicode="&#xe605;" horiz-adv-x="1101" 
d="M327 81q-45 0 -77 -30t-32 -72t32 -72t76.5 -30t76.5 30t32 72t-32 72t-76 30zM0 896v-102h109l196 -387l-74 -124q-13 -23 -13 -49q0 -42 32 -72t77 -30h653v102h-631q-5 0 -9 3.5t-4 8.5l1 7l49 83h406q30 0 55.5 14t39.5 38l195 331q7 10 7 24q0 21 -16 36t-39 15
h-805l-51 102h-178zM871 81q-45 0 -76.5 -30t-31.5 -72t31.5 -72t76.5 -30t77 30t32 72t-32 72t-77 30z" />
    <glyph glyph-name="uniE606" unicode="&#xe606;" horiz-adv-x="1144" 
d="M569 668v228h-569v-1024h1138v796h-569zM228 -14h-114v114h114v-114zM228 213h-114v114h114v-114zM228 441h-114v114h114v-114zM228 668h-114v114h114v-114zM455 -14h-114v114h114v-114zM455 213h-114v114h114v-114zM455 441h-114v114h114v-114zM455 668h-114v114h114
v-114zM1024 -14h-455v114h114v113h-114v114h114v114h-114v114h455v-569zM910 441h-114v-114h114v114zM910 213h-114v-113h114v113z" />
    <glyph glyph-name="uniE607" unicode="&#xe607;" 
d="M512 -128q89 0 170.5 35t140 93.5t93.5 140t35 170.5q-89 0 -170.5 -35t-140 -93.5t-93.5 -140t-35 -170.5zM200 445q0 -51 35.5 -86.5t86.5 -35.5q38 0 69 22l-1 -10q0 -50 36 -86t86 -36t86 36t36 86l-1 10q31 -22 69 -22q51 0 86.5 35.5t35.5 86.5q0 36 -19 65.5
t-51 44.5q32 15 51 44t19 65q0 51 -35.5 86.5t-86.5 35.5q-38 0 -69 -21l1 9q0 51 -36 86.5t-86 35.5t-86 -35.5t-36 -86.5l1 -9q-31 21 -69 21q-51 0 -86.5 -35.5t-35.5 -86.5q0 -36 19 -65t51 -44q-32 -15 -51 -44.5t-19 -65.5zM512 677q50 0 86 -36t36 -86.5t-36 -86
t-86 -35.5t-86 35.5t-36 86t36 86.5t86 36zM73 311q0 -89 35 -170.5t93.5 -140t140 -93.5t170.5 -35q0 89 -35 170.5t-93.5 140t-140 93.5t-170.5 35z" />
    <glyph glyph-name="uniE608" unicode="&#xe608;" horiz-adv-x="1460" 
d="M0 25h1452v-146h-1452v146zM860 693q11 28 11 58q0 60 -42.5 102.5t-102.5 42.5t-102.5 -42.5t-42.5 -102.5q0 -30 12 -58q-141 -29 -256 -113.5t-185 -210.5t-79 -272h1307q-10 146 -79.5 272t-184.5 210.5t-256 113.5z" />
    <glyph glyph-name="uniE609" unicode="&#xe609;" horiz-adv-x="1042" 
d="M912 896h-906v-566q0 -94 66 -160.5t160 -66.5h340q94 0 160 66.5t66 160.5v170h114q47 0 80 33t33 80v170q0 47 -33 80t-80 33zM912 613h-114v170h114v-170zM6 -10h906v-113h-906v113z" />
    <glyph glyph-name="uniE60A" unicode="&#xe60a;" 
d="M849 888h-674q-67 0 -114.5 -47.5t-47.5 -114.5v-684q0 -67 47.5 -114.5t114.5 -47.5h674q67 0 114.5 47.5t47.5 114.5v684q0 67 -47.5 114.5t-114.5 47.5zM280 355q-40 0 -54 17q-14 16 -14 56v107q0 39 15.5 55t52.5 16h191v32h-279q-20 0 -29 9q-8 9 -8 26q0 19 7 27
q8 9 30 9h279v9q0 22 10.5 30t31.5 8t31.5 -8t10.5 -30v-9h266q21 0 30 -9q8 -8 8 -27q0 -35 -38 -35h-266v-32h179q37 0 53.5 -17t16.5 -54v-107q0 -43 -21 -60h1q19 -17 39 -40q19 -23 35 -43q17 -22 15 -38t-15 -25q-15 -11 -31 -10q-16 2 -34 27q-4 6 -6 8q-4 6 -7 8
l-592 -6q-14 1 -26 11q-11 10 -10 26q0 20 8 29t29 9l282 3v28h-191zM550 113q-14 7 -21 24q-6 14 -12 25q-4 8 -16 24q-23 34 8 53q13 9 25 8t25 -18l11 -17q7 -10 10 -14q7 -11 15 -29q6 -18 5 -32q-2 -14 -20 -23l1 1q-18 -9 -31 -2zM293 162v-1q-18 -35 -31 -57
q-15 -26 -39 -55q-18 -21 -35 -23q-18 -2 -32 11t-13 31q1 17 18 34q20 22 35 43q16 23 24 44q20 47 57 30q21 -10 22 -24q2 -15 -6 -33zM732 81q-4 -19 -14 -31q-10 -11 -29 -17q-20 -5 -48 -7q-26 -1 -50 -2h-61q-31 0 -60 1q-25 0 -48 2q-31 3 -50 8q-18 5 -28 16
q-10 10 -13 27q-3 16 -3 43v75q0 20 12 29.5t28 9.5q19 0 30 -9.5t11 -29.5v-74q0 -13 8 -18q7 -5 33 -7q11 -1 34 -1q23 -1 48 -1h50q28 1 38 1q24 1 33 7t8 27q0 23 11 32t28 9q16 0 26 -10t10 -28q0 -32 -4 -52zM882 74q-4 -16 -16 -25l1 2q-15 -12 -29 -11q-15 1 -28 22
q-17 28 -33 50q-14 19 -34 43q-17 19 -18.5 33t14.5 32q13 11 28 9q15 -1 28 -17q22 -24 39 -48q16 -21 38 -54q13 -20 10 -36zM715 328l-160 -1v28h155q-4 -12 5 -27zM471 453v-32h-154q-12 0 -17 4t-5 17v11h176zM720 453v-11q0 -11 -4 -15q-4 -6 -19 -6h-142v32h165z
M720 519v-9h-165v29h142q13 0 18 -4q5 -6 5 -16zM471 539v-29h-176v9q0 10 4 15t18 5h154z" />
    <glyph glyph-name="uniE60B" unicode="&#xe60b;" 
d="M849 888h-674q-67 0 -114.5 -47.5t-47.5 -114.5v-684q0 -67 47.5 -114.5t114.5 -47.5h674q67 0 114.5 47.5t47.5 114.5v684q0 67 -47.5 114.5t-114.5 47.5zM855 120q0 -44 -18 -64t-64 -20h-523q-47 0 -63 20q-17 20 -17 64v523q0 44 15.5 63.5t61.5 19.5h526
q46 0 64 -19.5t18 -63.5v-523zM764 636q-6 6 -22 6h-468q-10 0 -15 -5t-5 -18v-468q0 -32 27 -32h469q10 0 15 8q6 9 6 24v469q0 10 -7 16zM732 458q-13 -8 -35 -8h-55v-204q3 -54 -22 -82q-25 -27 -73 -27h-29q-14 1 -24 2q-15 2 -24 4q-15 3 -25 6q-28 7 -35 23t2 38
q8 18 23 22q17 5 36 -1q25 -6 38 -8q12 -1 23 -1q9 0 14 5q6 4 6 25v140q-44 -58 -93 -101t-102 -75q-30 -17 -51 -16q-20 2 -31 20q-26 46 32 73q43 21 91 60q48 40 95 97h-165q-45 0 -45 41q0 22 10 34q11 11 35 11h224v36q0 21 12.5 32t32.5 11q45 0 45 -47v-32h55
q24 0 36 -9t12 -36q0 -25 -13 -33z" />
    <glyph glyph-name="uniE60C" unicode="&#xe60c;" horiz-adv-x="1278" 
d="M147 435l246 -256l737 717l147 -154l-884 -870l-393 410z" />
    <glyph glyph-name="uniE60D" unicode="&#xe60d;" 
d="M619 667q0 -75 -45.5 -126t-117.5 -51q-73 0 -123 51.5t-50 125.5l2 18q-74 -88 -114 -196.5t-40 -227.5q0 -103 51 -191t138.5 -139t191.5 -51t191.5 51t138.5 139t51 191q0 188 -83 354t-227 281q25 -71 30.5 -108t5.5 -121zM498 23q-63 0 -108 43.5t-45 106.5
q0 57 35.5 96t98.5 52q67 14 126 45.5t94 77.5q28 -93 28 -192q0 -95 -67 -162t-162 -67z" />
    <glyph glyph-name="uniE60E" unicode="&#xe60e;" horiz-adv-x="2304" 
d="M1690 -128h614v614zM2076 -51l-79 82l29 30l50 -51l147 144l30 -31zM2266 858v-948h-2228v948h2228zM2304 896h-2304v-1024h2304v1024z" />
    <glyph glyph-name="uniE60F" unicode="&#xe60f;" 
d="M849 888h-674q-67 0 -114.5 -47.5t-47.5 -114.5v-684q0 -67 47.5 -114.5t114.5 -47.5h674q67 0 114.5 47.5t47.5 114.5v684q0 67 -47.5 114.5t-114.5 47.5zM855 120q0 -44 -18 -64t-64 -20h-523q-47 0 -63 20q-17 20 -17 64v523q0 44 15.5 63.5t61.5 19.5h526
q46 0 64 -19.5t18 -63.5v-523zM764 636q-6 6 -22 6h-468q-10 0 -15 -5t-5 -18v-468q0 -32 27 -32h469q10 0 15 8q6 9 6 24v469q0 10 -7 16zM732 458q-13 -8 -35 -8h-55v-204q3 -54 -22 -82q-25 -27 -73 -27h-29q-14 1 -24 2q-15 2 -24 4q-15 3 -25 6q-28 7 -35 23t2 38
q8 18 23 22q17 5 36 -1q25 -6 38 -8q12 -1 23 -1q9 0 14 5q6 4 6 25v140q-44 -58 -93 -101t-102 -75q-30 -17 -51 -16q-20 2 -31 20q-26 46 32 73q43 21 91 60q48 40 95 97h-165q-45 0 -45 41q0 22 10 34q11 11 35 11h224v36q0 21 12.5 32t32.5 11q45 0 45 -47v-32h55
q24 0 36 -9t12 -36q0 -25 -13 -33z" />
    <glyph glyph-name="uniE610" unicode="&#xe610;" 
d="M1024 -77l-163 161q60 65 93 148.5t33 175.5q0 99 -39.5 189.5t-105.5 155.5t-157.5 104t-191 39t-191 -39t-158 -104t-105.5 -155.5t-39 -189t39 -189t105.5 -156t158 -104t190.5 -38.5q179 0 316 112l163 -161zM493 -6q-114 0 -210.5 55.5t-152.5 151t-56 208t56 208
t152.5 151t211 55.5t211 -55.5t152.5 -151t56 -208t-56 -208t-152.5 -151t-211.5 -55.5z" />
    <glyph glyph-name="uniE611" unicode="&#xe611;" horiz-adv-x="1050" 
d="M513 -128q104 0 199 40.5t163.5 109t109 163.5t40.5 199t-40.5 199t-109 163.5t-163.5 109t-199 40.5t-199 -40.5t-163.5 -109t-109 -163.5t-40.5 -199t40.5 -199t109 -163.5t163.5 -109t199 -40.5zM513 179l-23 20q-43 37 -63 55t-48 46.5t-40 47t-21.5 42.5t-9.5 48
q0 40 33.5 70t80.5 30q54 0 91 -40q37 40 91 40q47 0 80.5 -30t33.5 -70q0 -24 -9.5 -48t-21.5 -42.5t-40 -47t-48 -46.5t-63 -55z" />
    <glyph glyph-name="uniE612" unicode="&#xe612;" horiz-adv-x="1119" 
d="M553 698l110 -213l242 -34l-175 -162l4 -20l38 -213l-219 110l-219 -110l39 213l3 20l-175 162l242 34zM553 776l-133 -258l-299 -41l216 -201l-51 -284l267 134l267 -134l-51 284l216 201l-298 41z" />
    <glyph glyph-name="uniE613" unicode="&#xe613;" horiz-adv-x="1119" 
d="M552 776l-134 -258l-298 -41l216 -201l-51 -284l267 134l267 -134l-51 284l216 201l-299 41z" />
    <glyph glyph-name="uniE614" unicode="&#xe614;" horiz-adv-x="1451" 
d="M725 -128l726 1024h-1451z" />
    <glyph glyph-name="uniE615" unicode="&#xe615;" 
d="M512 884q-102 0 -194.5 -39.5t-159.5 -106.5t-106.5 -159.5t-39.5 -194.5t39.5 -194.5t106.5 -159.5t159.5 -106.5t194.5 -39.5t194.5 39.5t159.5 106.5t106.5 159.5t39.5 194.5t-39.5 194.5t-106.5 159.5t-159.5 106.5t-194.5 39.5zM416 184l-154 160l58 60l96 -100
l288 280l58 -60z" />
    <glyph glyph-name="uniE616" unicode="&#xe616;" 
d="M512 859q97 0 185 -37.5t151.5 -101t101 -151.5t37.5 -185t-37.5 -185t-101 -151.5t-151.5 -101t-185 -37.5t-185 37.5t-151.5 101t-101 151.5t-37.5 185t37.5 185t101 151.5t151.5 101t185 37.5zM512 884q-102 0 -194.5 -39.5t-159.5 -106.5t-106.5 -159.5t-39.5 -194.5
t39.5 -194.5t106.5 -159.5t159.5 -106.5t194.5 -39.5t194.5 39.5t159.5 106.5t106.5 159.5t39.5 194.5t-39.5 194.5t-106.5 159.5t-159.5 106.5t-194.5 39.5z" />
    <glyph glyph-name="uniE617" unicode="&#xe617;" 
d="M521 896q-98 0 -180.5 -48t-130.5 -130.5t-48 -179.5q0 -76 37 -172t90 -180t105.5 -156t89.5 -115.5t37 -42.5q7 8 20 23t50.5 61.5t71 93t75 112.5t71 126.5t50 127.5t20.5 122q0 97 -48 179.5t-130.5 130.5t-179.5 48zM521 410q-53 0 -90.5 37.5t-37.5 90.5t37.5 90.5
t90.5 37.5t90.5 -37.5t37.5 -90.5t-37.5 -90.5t-90.5 -37.5z" />
    <glyph glyph-name="uniE618" unicode="&#xe618;" 
d="M521 870q90 0 166.5 -44.5t121.5 -121t45 -166.5q0 -63 -28.5 -143t-67 -148t-90 -142.5t-84 -116t-63.5 -77.5q-31 36 -64 77.5t-84.5 116t-89.5 142.5t-66.5 148t-28.5 143q0 90 44.5 166.5t121.5 121t167 44.5zM520.5 384q63.5 0 108.5 45t45 108.5t-45 108.5
t-108.5 45t-108.5 -45t-45 -108.5t45 -108.5t108.5 -45zM521 896q-98 0 -180.5 -48t-130.5 -130.5t-48 -179.5q0 -76 37 -172t90 -180t105.5 -156t89.5 -115.5t37 -42.5q7 8 20 23t50 61.5t71 93t75.5 112.5t71 126.5t50 127.5t20.5 122q0 97 -48 179.5t-130.5 130.5
t-179.5 48zM521 410q-53 0 -90.5 37.5t-37.5 90.5t37.5 90.5t90.5 37.5t90.5 -37.5t37.5 -90.5t-37.5 -90.5t-90.5 -37.5z" />
    <glyph glyph-name="uniE619" unicode="&#xe619;" 
d="M507 732q-93 0 -172 -39.5t-125 -107t-46 -147.5q0 -117 95 -202q7 -6 7 -15v-160q-4 -13 7.5 -20.5t22.5 -0.5l133 105q7 6 16 5q31 -5 62 -5q93 0 171.5 39t124.5 107t46 147.5t-46 147t-124.5 107t-171.5 39.5zM507 223q-108 0 -185 63t-77 152t77 152t185 63t185 -63
t77 -152t-77 -152t-185 -63z" />
    <glyph glyph-name="uniE61A" unicode="&#xe61a;" horiz-adv-x="1134" 
d="M184 36h139v418h-139v-418zM949 419q0 28 -20.5 48.5t-48.5 20.5h-220l33 159l1 11q0 22 -15 37l-37 37l-229 -229q-20 -20 -20 -49v-348q0 -29 20.5 -49.5t48.5 -20.5h313q22 0 39 12t25 31l105 245q5 12 5 25v67v3z" />
    <glyph glyph-name="uniE61B" unicode="&#xe61b;" 
d="M206 453q61 -121 157.5 -217t217.5 -158l125 125q25 25 58 14q98 -33 203 -33q24 0 40.5 -16.5t16.5 -40.5v-198q0 -24 -16.5 -40.5t-40.5 -16.5q-131 0 -256.5 34.5t-231.5 97t-195.5 152t-152 195.5t-97 231.5t-34.5 256.5q0 24 16.5 40.5t40.5 16.5h199q23 0 40 -16.5
t17 -40.5q0 -105 32 -203q11 -33 -14 -58z" />
    <glyph glyph-name="uniE61C" unicode="&#xe61c;" 
d="M539 873h-380v-978h217v326h163q89 0 164 43.5t118.5 118.5t43.5 163.5t-43.5 163.5t-118.5 119t-164 44zM550 438h-174v217h174q45 0 77 -31.5t32 -76.5t-32 -77t-77 -32z" />
    <glyph glyph-name="uniE61D" unicode="&#xe61d;" horiz-adv-x="1229" 
d="M1092 862h-955q-50 0 -84.5 -35t-34.5 -85l-1 -716q0 -50 35 -85t84 -35h956q50 0 85 35t35 85v716q0 50 -35 85t-85 35zM1092 26h-955v358h955v-358zM1092 623h-955v119h955v-119z" />
    <glyph glyph-name="uniE61E" unicode="&#xe61e;" 
d="M512 384zM0 384q0 139 68.5 257t186.5 186.5t257 68.5t257 -68.5t186.5 -186.5t68.5 -257t-68.5 -257t-186.5 -186.5t-257 -68.5t-257 68.5t-186.5 186.5t-68.5 257zM694 156l46 46l-182 182l182 182l-46 46l-182 -182l-182 182l-46 -46l182 -182l-182 -182l46 -46
l182 182z" />
    <glyph glyph-name="uniE61F" unicode="&#xe61f;" 
d="M512 384zM0 384q0 139 68.5 257t186.5 186.5t257 68.5t257 -68.5t186.5 -186.5t68.5 -257t-68.5 -257t-186.5 -186.5t-257 -68.5t-257 68.5t-186.5 186.5t-68.5 257zM801 352v64h-257v257h-64v-257h-257v-64h257v-257h64v257h257z" />
    <glyph glyph-name="uniE620" unicode="&#xe620;" horiz-adv-x="1229" 
d="M997 667q0 10 -7 17t-16.5 7t-16.5 -7t-7 -17v-71q0 -10 7 -17t16.5 -7t16.5 7t7 17v71zM997 480q0 10 -7 17t-16.5 7t-16.5 -7t-7 -17v-71q0 -10 7 -17t16.5 -7t16.5 7t7 17v71zM997 295q0 10 -7 17t-16.5 7t-16.5 -7t-7 -17v-71q0 -10 7 -17t16.5 -7t16.5 7t7 17v71z
M973 138q-9 0 -16 -7t-7 -16v-71q0 -10 7 -17t16.5 -7t16.5 7t7 17v71q0 9 -7 16t-17 7zM352 608q10 0 16.5 7t6.5 17t-6.5 17t-16.5 7h-126q-9 0 -16 -7t-7 -17t7 -17t16 -7h126zM757 608q10 0 16.5 7t6.5 17t-6.5 17t-16.5 7h-126q-10 0 -16.5 -7t-6.5 -17t6.5 -17
t16.5 -7h126zM762 172q7 0 13 4q8 6 10 15.5t-4 18.5l-114 176h93q10 0 17 7t7 17t-7 17t-17 7h-371l40 62h331q10 0 16.5 7.5t6.5 17t-6.5 16.5t-16.5 7h-299l86 134q6 8 4 17.5t-10 15t-17.5 4t-14.5 -10.5l-104 -160h-192q-10 0 -16.5 -7t-6.5 -16.5t6.5 -17t16.5 -7.5
h161l-41 -62h-120q-10 0 -16.5 -7t-6.5 -17t6.5 -17t16.5 -7h89l-115 -176q-5 -9 -3.5 -18.5t9.5 -15.5q6 -4 13 -4q13 0 20 11l131 203h254l132 -203q7 -11 19 -11zM549 131q-10 0 -16.5 -7t-6.5 -17t6.5 -17t16.5 -7h85q9 0 16 7t7 17v194q0 10 -7 17t-16 7h-204h-91
q-9 0 -16 -7t-7 -17t7 -17t16 -7h48l-107 -165q-5 -8 -3.5 -17.5t9.5 -15.5q6 -4 13 -4q12 0 19 11l125 191h168v-146h-62zM1212 521q17 5 17 22v304q0 20 -14 34.5t-33 14.5h-1135q-19 0 -33 -14.5t-14 -34.5v-889q0 -20 14 -34.5t33 -14.5h834h2q64 0 98 -31q7 -6 15 -6
q11 0 18 8q6 8 5.5 17.5t-7.5 16.5q-22 20 -55 30.5t-49 11.5t-27 1h-834q-1 0 -1 1v889q0 1 1 1h903v-1v-70q0 -10 7 -17t16.5 -7t16.5 7t7 17v70v1h185v-288q-46 -20 -77 -61q-37 -51 -37 -115t37 -114q31 -42 77 -62v-250v-1h-98q-10 0 -17 -7t-7 -17t7 -17t17 -7h98
q19 0 33 14.5t14 34.5v267q0 17 -17 23q-44 14 -71 51.5t-27 84.5t27 84.5t71 52.5z" />
    <glyph glyph-name="uniE621" unicode="&#xe621;" 
d="M177.5 -128q-59.5 0 -101.5 42t-42 101.5t42 101.5t101.5 42t102 -42t42.5 -101.5t-42.5 -101.5t-102 -42zM177.5 106q-37.5 0 -64 -26.5t-26.5 -64t26.5 -64t64 -26.5t64 26.5t26.5 64t-26.5 64t-64 26.5zM841.5 -128q-59.5 0 -101.5 42t-42 101.5t42 101.5t101.5 42
t101.5 -42t42 -101.5t-42 -101.5t-101.5 -42zM841.5 106q-37.5 0 -64 -26.5t-26.5 -64t26.5 -64t64 -26.5t64 26.5t26.5 64t-26.5 64t-64 26.5zM515.5 104q-48.5 0 -86 13.5t-56 30.5t-30.5 38.5t-14 31t-3 14.5q-1 11 6 19.5t18 9.5t19.5 -6t9.5 -18l3 -10q1 -6 9.5 -19.5
t22 -23.5t40.5 -18.5t62 -8.5t61.5 8.5t40 18.5t22 23.5t10.5 19.5l2 10q1 11 9.5 18t19.5 5.5t18 -9.5t6 -19q-1 -6 -3 -14.5t-14 -30.5t-30 -39t-56 -30.5t-86.5 -13.5zM785 459q-10 0 -17.5 6.5t-8.5 17.5q-3 25 -15 52.5t-29.5 27.5t-28.5 -27t-13 -53q-1 -11 -9.5 -18
t-19.5 -6t-18 9.5t-6 19.5q2 28 11 55t31 50t52 23t52.5 -23t32 -49.5t13.5 -54.5q1 -11 -6 -19.5t-18 -10.5h-3zM424 459q-10 0 -17.5 6.5t-8.5 17.5q-3 25 -15 52.5t-29.5 27.5t-28.5 -27t-13 -53q-1 -11 -9.5 -18t-19.5 -6t-18 9.5t-6 19.5q2 28 11 55t31 50t52 23
t52.5 -23t32 -49.5t13.5 -54.5q1 -11 -6 -19.5t-18 -10.5h-3zM698 15q0 8 1 18q-89 -45 -189 -45t-190 45q2 -10 2 -18q0 -19 -6 -39q92 -41 193.5 -41t193.5 41q-5 20 -5 39zM171 159q-84 111 -84 250q0 115 56.5 212t154 153t212 56t212 -56t154 -153t56.5 -212
q0 -139 -84 -250q30 -2 56 -14q81 120 81 264q0 97 -37.5 184.5t-101.5 151t-152 101.5t-184.5 38t-184.5 -38t-151.5 -101.5t-101.5 -151t-38 -184.5q0 -144 81 -264q26 12 56 14z" />
    <glyph glyph-name="uniE622" unicode="&#xe622;" 
d="M518 896q-106 0 -202 -40.5t-165.5 -110t-110 -165.5t-40.5 -202q0 -102 40.5 -195.5t109.5 -161.5t165.5 -108.5t202.5 -40.5q102 0 195.5 40.5t161.5 108.5t108.5 161.5t40.5 195.5q0 106 -40.5 202.5t-108.5 165.5t-161.5 109.5t-195.5 40.5zM518 -24v116
q-84 -2 -155.5 37t-113.5 109t-42 152q0 78 52 156l52 -52q-26 -61 -26 -104q0 -95 68 -162t165 -71v117l156 -143zM778 222l-52 52q26 61 26 104q0 95 -68 162t-166 71v-117l-155 143l155 155v-116q85 2 156.5 -37t113.5 -108.5t42 -152.5q0 -79 -52 -156z" />
    <glyph glyph-name="uniE623" unicode="&#xe623;" 
d="M958 -102h-243v81h202v202h81v-243q0 -17 -11.5 -28.5t-28.5 -11.5zM107 -21h202v-81h-243q-17 0 -28.5 11.5t-11.5 28.5v243h81v-202zM998 343h-972v82h972v-82zM998 587h-81v202h-202v81h243q17 0 28.5 -11.5t11.5 -28.5v-243zM309 789h-202v-202h-81v243
q0 17 11.5 28.5t28.5 11.5h243v-81z" />
    <glyph glyph-name="uniE624" unicode="&#xe624;" horiz-adv-x="1567" 
d="M356 557l131 104l296 -311l296 311l131 -104l-427 -450z" />
    <glyph glyph-name="uniE625" unicode="&#xe625;" horiz-adv-x="1567" 
d="M13 697l236 188l534 -563l535 563l235 -188l-770 -814z" />
    <glyph glyph-name="uniE626" unicode="&#xe626;" horiz-adv-x="1081" 
d="M949 896h-797q-47 0 -80 -33.5t-33 -80.5v-796q0 -47 33 -80.5t80 -33.5h797q47 0 80.5 33.5t33.5 80.5v796q0 47 -33.5 80.5t-80.5 33.5zM437 100l-285 284l57 57l228 -171l455 398l57 -56z" />
    <glyph glyph-name="uniE627" unicode="&#xe627;" horiz-adv-x="1081" 
d="M949 868q35 0 60 -25t25 -61v-796q0 -36 -25 -61t-60 -25h-797q-35 0 -60 25t-25 61v796q0 36 25 61t60 25h797zM949 896h-797q-47 0 -80 -33.5t-33 -80.5v-796q0 -47 33 -80.5t80 -33.5h797q47 0 80.5 33.5t33.5 80.5v796q0 47 -33.5 80.5t-80.5 33.5z" />
    <glyph glyph-name="uniE629" unicode="&#xe629;" 
d="M306.5 814q-9.5 -9 -10 -21.5t7.5 -21.5l370 -370q12 -11 12 -17t-12 -18l-370 -370q-8 -8 -7.5 -21t10 -22t22 -9.5t21.5 8.5l411 411q7 7 8 18v5q-1 12 -8 19l-411 411q-9 8 -21.5 7.5t-22 -9.5z" />
    <glyph glyph-name="uniE62A" unicode="&#xe62a;" horiz-adv-x="1567" 
d="M1222 211l-130 -104l-296 311l-297 -311l-130 104l427 450z" />
    <glyph glyph-name="uniE62B" unicode="&#xe62b;" 
d="M752 344l-400 -399q-16 -17 -39.5 -17t-40 16.5t-16.5 40t16 40.5l360 359l-360 359q-16 17 -16 40.5t16.5 40t40 16.5t39.5 -17l400 -399q16 -17 16 -40t-16 -40z" />
    <glyph glyph-name="uniE62C" unicode="&#xe62c;" horiz-adv-x="1567" 
d="M637 -49l-104 130l312 297l-312 296l104 131l451 -427z" />
    <glyph glyph-name="uniE62D" unicode="&#xe62d;" horiz-adv-x="1567" 
d="M963 817l104 -130l-312 -297l312 -296l-104 -131l-451 427z" />
    <glyph glyph-name="uniE62E" unicode="&#xe62e;" horiz-adv-x="1025" 
d="M413 178l-158 165l59 62l99 -103l297 288l59 -62z" />
    <glyph glyph-name="uniE62F" unicode="&#xe62f;" horiz-adv-x="1276" 
d="M1012 255q-2 1 -8 1h-90q-4 0 -5.5 -1.5t-1.5 -7.5v-23h101q6 0 6 10v16q0 4 -2 5zM1016 119h-15v-93q2 4 6.5 5t8.5 0q4 -2 5.5 -1t1.5 6v78q0 3 -1.5 4t-5.5 1zM1158 376h-302q-35 0 -59.5 -25t-24.5 -59v-302q0 -35 24.5 -59.5t59.5 -24.5h302q35 0 59.5 24.5
t24.5 59.5v302q0 34 -24.5 59t-59.5 25zM1071 253q0 13 5 16t15 3q8 0 13.5 -3t5.5 -16v-177q0 -12 -5 -16t-14 -4q-10 0 -15 4t-5 16v177zM904 93q-4 -47 -17 -86q-5 -15 -13 -18.5t-16 -0.5q-12 5 -13.5 12t3.5 18q7 18 11.5 35.5t6.5 37.5q2 21 3 45v57l-1 63
q0 19 7 27.5t27 8.5h117q20 0 26.5 -8.5t6.5 -27.5v-31q0 -19 -6.5 -27.5t-26.5 -8.5h-112q1 -49 -3 -96zM1057 31q0 -18 -8 -28t-25 -10q-18 1 -23 7v-8q0 -12 -3.5 -16t-11.5 -4q-10 0 -14 4t-4 16v127h-14q-4 0 -5 -1.5t-1 -7.5v-99q0 -11 -4 -15.5t-12 -4.5
q-9 0 -13.5 4t-4.5 16v109q0 19 6.5 26.5t24.5 7.5h23v13q0 12 4 15.5t13 3.5t12.5 -3.5t3.5 -15.5v-13h24q18 0 25 -7.5t7 -26.5v-89zM1169 29q0 -20 -4.5 -32t-15 -18t-26 -5.5t-37.5 7.5q-17 5 -20 13t1 21q9 19 30 10q11 -5 17 -6t9.5 0.5t4.5 6t1 12.5v251q0 20 20 20
q11 0 15.5 -4.5t4.5 -15.5v-260zM1113 855q-24 24 -66 32.5t-116 8.5h-715q-73 0 -115.5 -8.5t-66.5 -32.5t-29.5 -63t-4.5 -122l1 -55l-1 -314q0 -57 1 -83.5t8.5 -55.5t24.5 -46q24 -24 66.5 -32.5t115.5 -8.5h522v49h-522q-121 0 -147 26q-14 15 -17.5 46.5t-2.5 104.5
v55v242h1049l1 -184v-4h48v260q1 58 0 84t-9 55t-25 46zM216 847h715q122 0 148 -26q19 -19 20 -93h-1050q1 74 20 93q26 26 147 26zM168 302h49v174h-49v-174zM285 302h49v174h-49v-174zM386 302h49v174h-49v-174zM1147 414zM738 75z" />
    <glyph glyph-name="uniE630" unicode="&#xe630;" horiz-adv-x="1276" 
d="M1158 376h-302q-35 0 -59.5 -25t-24.5 -59v-302q0 -35 24.5 -59.5t59.5 -24.5h302q35 0 59.5 24.5t24.5 59.5v302q0 34 -24.5 59t-59.5 25zM949 135q-7 -7 -13 -12q-8 -5 -13 -9v-93q0 -19 -8 -30t-26 -11q-11 0 -27 6q-10 5 -13 12.5t0 15.5q4 10 10 13t19 -2q4 -1 5 0
t1 5v61l-4 -2l-4 -2q-23 -12 -31 10q-2 9 2 17t15 13q2 1 11 5q5 3 11 6v62h-18q-11 0 -15.5 5t-4.5 15t4.5 15t15.5 5h18v41q0 11 5 15.5t15 4.5q19 0 19 -20v-41h11q11 0 15 -5t4 -15t-4 -15t-15 -5h-11v-36q8 6 15 7t14 -6t6.5 -14.5t-9.5 -15.5zM1151 183h-71v-159h34
q5 0 6 1.5t1 4.5v32h-14q-10 0 -15 5.5t-5 14.5t5 14t15 5h14v23q0 3 -1 3.5t-5 0.5h-7q-10 0 -15.5 4.5t-5.5 15.5t6.5 15t17.5 4h13q18 0 25.5 -8t7.5 -27v-111q0 -11 -1 -18t-4.5 -11.5t-9.5 -6t-16 -1.5h-129q-21 0 -29 9.5t-8 31.5v104q0 17 5 24t15 10q9 2 14 4
q4 1 10 3q13 4 19 2.5t10 -9.5q4 -9 1.5 -16t-12.5 -11l-19 -6q-4 -1 -5 -2.5t-1 -5.5v-22h18q19 0 19 -20q0 -9 -5 -14.5t-14 -5.5h-18v-29q0 -4 1 -5.5t5 -1.5h39v159h-67q-10 0 -15.5 4t-5.5 15q0 10 6 14.5t15 4.5h67v22q-26 -2 -54 -2q-12 0 -18 4t-6 14q-1 11 6 15
t19 5q37 0 72 3t61 9q11 3 19 0.5t11 -13.5q2 -9 -2.5 -15t-18.5 -9q-13 -2 -25 -4t-26 -4v-25h71q18 0 18 -19t-18 -19zM1113 855q-24 24 -66 32.5t-116 8.5h-715q-73 0 -115.5 -8.5t-66.5 -32.5t-29.5 -63t-4.5 -122l1 -55l-1 -314q0 -57 1 -83.5t8.5 -55.5t24.5 -46
q24 -24 66.5 -32.5t115.5 -8.5h522v49h-522q-121 0 -147 26q-14 15 -17.5 46.5t-2.5 104.5v55v242h1049l1 -184v-4h48v260q1 58 0 84t-9 55t-25 46zM216 847h715q122 0 148 -26q19 -19 20 -93h-1050q1 74 20 93q26 26 147 26zM168 302h49v174h-49v-174zM285 302h49v174h-49
v-174zM386 302h49v174h-49v-174zM1147 414zM738 75zM755 75zM738 75z" />
    <glyph glyph-name="uniE631" unicode="&#xe631;" horiz-adv-x="1276" 
d="M1068 242q1 -7 -4 -17q-1 0 -1 -1t-1 -2h57h3h3q-1 4 2 14q0 2 1 4l1 3q0 3 1 7q1 3 -0.5 3.5t-4.5 0.5h-68h1q9 -5 10 -12zM1026.5 232q2.5 5 4.5 10q2 4 4 7t5 5h-50q-4 0 -4 -3v-23v-3v-3h2h4h29q3 5 5.5 10zM1158 376h-302q-35 0 -59.5 -25t-24.5 -59v-302
q0 -35 24.5 -59.5t59.5 -24.5h302q35 0 59.5 24.5t24.5 59.5v302q0 34 -24.5 59t-59.5 25zM1165.5 41.5q-3.5 -4.5 -14.5 -4.5h-62v-41q0 -9 -4 -13.5t-14 -4.5q-11 0 -16 4.5t-5 13.5v41h-78q-10 0 -14 4.5t-4 14.5t4 14t14 4h78v26h-50q-16 0 -23.5 7t-7.5 18q0 9 7 19
q13 20 25 41h-9q-10 0 -14.5 4t-4.5 14v4q0 1 1 3q-2 0 -3.5 -0.5t-2.5 -0.5q-11 0 -15 5q-4 -7 -17 -7h-9v-41q1 2 2 2q17 14 29 1q7 -7 7 -14t-10 -16l-14 -12q-7 -6 -14 -11v-95q0 -20 -8 -30.5t-26 -10.5q-12 0 -27 6q-11 5 -13.5 12t0.5 16q4 10 10 13t19 -2
q3 -1 4.5 0t1.5 5v62l-6 -2q-2 -1 -5 -3h-1q-11 -6 -19 -4t-11 14v-1q-6 18 16 28q13 6 26 14v69h-21q-11 0 -15.5 5t-4.5 15q0 9 4.5 14.5t15.5 5.5h21v36q0 11 5 15.5t14 4.5q20 0 20 -20v-36h9q8 0 12 -3v6q0 21 11.5 31t31.5 10h136q21 0 30.5 -7.5t9.5 -26.5
q0 -7 -1 -14.5t-3 -14.5q-3 -13 -9.5 -16t-17.5 1q2 -4 2 -10q0 -10 -4.5 -14t-14.5 -4h-76q-5 -9 -10 -17q-5 -9 -11 -20q-4 -6 -2.5 -8.5t11.5 -2.5h19v21q0 10 4.5 14t15.5 4q10 0 14.5 -4t4.5 -14v-21h38q11 0 15.5 -3t4.5 -15q0 -7 -1 -10.5t-3.5 -5.5t-6.5 -2.5
t-10 -0.5h-37v-26h62q11 0 14.5 -4t3.5 -14t-3.5 -14.5zM1113 855q-24 24 -66 32.5t-116 8.5h-715q-73 0 -115.5 -8.5t-66.5 -32.5t-29.5 -63t-4.5 -122l1 -55l-1 -314q0 -57 1 -83.5t8.5 -55.5t24.5 -46q24 -24 66.5 -32.5t115.5 -8.5h522v49h-522q-121 0 -147 26
q-14 15 -17.5 46.5t-2.5 104.5v55v242h1049l1 -184v-4h48v260q1 58 0 84t-9 55t-25 46zM216 847h715q122 0 148 -26q19 -19 20 -93h-1050q1 74 20 93q26 26 147 26zM168 302h49v174h-49v-174zM285 302h49v174h-49v-174zM386 302h49v174h-49v-174zM1147 414zM738 75zM755 75z
M738 75z" />
    <glyph glyph-name="uniE632" unicode="&#xe632;" 
d="M38 896h404q9 -1 15 -5.5t9.5 -13t5.5 -17t2.5 -21t0 -22t-0.5 -23.5v-22v-224q0 -8 0.5 -29t0 -31.5t-2 -25.5t-7 -23.5t-15 -12.5t-28 -4.5t-44.5 0.5t-32 1h-215q-8 0 -30 -0.5t-33.5 0t-27 2.5t-23.5 9.5t-11 20.5v410q9 24 32 31zM93 804v-292h292v296h-290
q-2 -1 -2 -4zM581 896h405q26 -10 31 -37v-399q-7 -29 -29 -35q-11 -4 -28.5 -4t-40.5 1t-33 1h-207q-10 0 -33.5 -1t-41 -1t-29.5 4q-10 3 -16 12t-8 25t-2.5 28t0.5 34.5t1 30.5v209q0 10 -1 34t-0.5 36t2.5 27.5t9.5 24t20.5 10.5zM637 804v-292h292v296h-291
q-2 -1 -1 -4zM226 718q30 6 51.5 -11.5t22.5 -45.5q0 -36 -29.5 -53.5t-59.5 -2.5q-21 12 -28 37t5 48t38 28zM770 718q49 9 66 -32q14 -35 -7 -65q-21 -28 -59 -21q-29 5 -40.5 31.5t-0.5 54t41 32.5zM440 -128h-401q-26 8 -33 33v408q9 25 28 30q11 4 28.5 4t40.5 -1
t32 -1h208q9 0 32 1.5t41 1t30 -4.5q11 -3 17.5 -12t8.5 -25t2.5 -27.5t0 -34t-0.5 -30.5v-216q0 -8 0.5 -22.5t0.5 -24.5t-0.5 -23t-2.5 -21.5t-5.5 -16.5t-10.5 -12.5t-16 -5.5zM93 252v-292h292v296h-290q-2 0 -2 -4zM1017 194q-2 -10 -1.5 -61.5t0.5 -62.5h-290v190
q-6 2 -43.5 1.5t-45.5 -0.5q-2 -20 -2 -193v-196h-53q-13 3 -20.5 11.5t-10 24.5t-3 28t0.5 35t1 33v210q0 9 -1.5 33.5t-1 42t3.5 29.5q2 6 5.5 10.5t10 7.5t11 4.5t14.5 2.5t14 1h18h17h182v-181h106q0 16 -0.5 91t1.5 90q23 0 41.5 -0.5t31.5 -9.5t14 -27v-114zM233 168
q33 4 54 -22.5t9 -60.5q-7 -18 -23 -28t-33.5 -8.5t-33 10t-23 26.5t-1.5 41q9 37 51 42zM824 -128h-98v54q0 44 2 52h96v-106zM1017 -22v-69q-6 -28 -33 -37h-69q0 9 -0.5 53.5t1.5 52.5h101z" />
    <glyph glyph-name="uniE633" unicode="&#xe633;" 
d="M468 -7h84q14 0 24 9t10 22q0 12 -9.5 21.5t-24.5 9.5h-84q-14 0 -24 -9t-10 -22t9.5 -22t24.5 -9zM817 -37q0 -12 -10.5 -21.5t-23.5 -9.5h-547q-14 0 -24.5 9t-10.5 22v151h614v-151h2zM817 488v-316h-616v633q0 12 10 21t25 9h545q14 0 24 -8.5t10 -21.5v-216h68v216
q0 37 -30 63.5t-72 26.5h-545q-42 0 -72.5 -27t-30.5 -63v-842q0 -38 30.5 -64t72.5 -26h545q41 0 71.5 26.5t30.5 63.5v525h-66zM385 774q-14 0 -24 -8.5t-10 -21.5t9.5 -22t24.5 -9h246q14 0 24.5 8.5t10.5 22.5q0 12 -10 21t-25 9h-246zM341 492v-160q0 -6 -4.5 -10.5
t-15 -4.5t-15 5t-4.5 10v160h-38q-5 0 -10 4t-5 13q0 10 4.5 14t10.5 4h115q6 0 10.5 -4t4.5 -14q0 -9 -5 -13t-10 -4h-38zM453 474q0 -7 4.5 -12t10.5 -9t12.5 -6.5t11.5 -5.5q14 -6 23.5 -11.5t16 -12.5t9.5 -15.5t2 -19.5q0 -30 -18 -48t-54 -19q-14 0 -25.5 3.5
t-20.5 7.5q-7 4 -12 9t-7 10t-2 10t3 8q4 6 10 7t11 -2q4 -3 9 -6.5t10.5 -6.5t11.5 -4.5t13 -1.5q6 0 12 2t10.5 6t7 9.5t2.5 13.5q0 7 -3.5 12t-8 9t-10 7t-9.5 4q-13 5 -23.5 10t-18.5 12t-13 17t-5 23q0 15 6 25.5t15.5 17.5t21.5 11t24 3q14 0 26 -4t20 -10.5
t10.5 -13.5t-1.5 -14q-2 -3 -5 -5t-6.5 -2.5t-6.5 0t-5 1.5q-3 2 -7 5t-8.5 5t-9 3.5t-9.5 1.5q-6 0 -10.5 -2.5t-7.5 -6t-5 -7.5t-2 -8zM778 339v-8q0 -4 -1.5 -7.5t-5.5 -5t-11 -1.5q-10 -1 -13 4t-5 15l-14 107q-1 7 -3.5 7t-4.5 -7l-33 -114q-2 -6 -5.5 -9t-12.5 -3
q-5 0 -8.5 0.5t-5.5 2t-3 4t-2 5.5q-10 34 -17 57q-8 28 -17 57q-2 7 -4 7t-4 -7l-13 -105q-2 -11 -6.5 -16t-15.5 -5q-9 0 -12.5 5t-1.5 17l25 169q2 10 8.5 16t16 6t16 -5t10.5 -19l34 -124l33 124q4 14 10.5 19t15.5 5q8 0 15 -6t9 -17z" />
    <glyph glyph-name="uniE634" unicode="&#xe634;" 
d="M663 705l-30 170q-1 9 -8 15t-16 6h-257q-10 0 -17 -6t-8 -15l-31 -171q-44 -8 -73 -42.5t-29 -79.5v-395q0 -45 29 -79.5t73 -42.5l31 -171q1 -9 8 -15t17 -6h257q9 0 16 6t8 15l30 170q45 8 75 42.5t30 80.5v395q0 46 -30 80.5t-75 42.5zM373 846h215l24 -140h-264z
M320 657h323q21 0 39 -11.5t28 -29.5h-457q10 18 27.5 29.5t39.5 11.5zM588 -77h-215l-25 139h264zM643 112h-323q-22 0 -39.5 11.5t-27.5 29.5h457q-10 -18 -28 -29.5t-39 -11.5zM718 203h-473v363h473v-363zM812 567q-7 0 -12 -5t-5 -11v-91q0 -7 5 -11.5t12 -4.5t12 4.5
t5 11.5v91q0 6 -5 11t-12 5zM812 398q-7 0 -12 -5t-5 -12v-163q0 -6 5 -11t12 -5t12 5t5 11v163q0 7 -5 12t-12 5zM508 346h61q24 0 24 -24t-24 -24h-61v-50q0 -17 -5 -22.5t-21 -5.5q-14 0 -20 5.5t-6 22.5v50h-60q-25 0 -25 24t24 24h61v22h-60q-25 0 -25 24t24 24h34
q-10 16 -26.5 43t-26.5 43q-7 12 -5 20.5t11 14.5q10 7 18.5 5.5t15.5 -14.5l66 -109q14 23 32 54q17 28 33 54q4 8 8.5 11.5t8.5 4t9 -1.5q4 -1 9 -5q10 -6 11 -14t-6 -20l-52 -86h34q24 0 24 -24t-24 -24h-61v-22z" />
    <glyph glyph-name="uniE635" unicode="&#xe635;" horiz-adv-x="1348" 
d="M1132 -115h-916q-84 0 -143.5 59.5t-59.5 143.5v592q0 84 59.5 143.5t143.5 59.5h916q83 0 142.5 -59.5t59.5 -143.5v-592q0 -84 -59.5 -143.5t-142.5 -59.5zM216 802q-51 0 -86.5 -35.5t-35.5 -86.5v-592q0 -51 35.5 -86.5t86.5 -35.5h916q50 0 85.5 35.5t35.5 86.5v592
q0 51 -35.5 86.5t-85.5 35.5h-916zM1182 465v-16q0 -6 -6 -11t-14 -5h-257q-8 0 -13.5 5t-5.5 11v16q0 7 5.5 11.5t13.5 4.5h257q9 0 14.5 -4.5t5.5 -11.5zM1182 591v-16q0 -7 -9.5 -11.5t-22.5 -4.5h-419q-13 0 -22.5 4.5t-9.5 11.5v16q0 7 9.5 11.5t22.5 4.5h419
q13 0 22.5 -4.5t9.5 -11.5zM663 159q0 -22 -15.5 -37.5t-36.5 -15.5h-301q-22 0 -37.5 15.5t-15.5 37.5v203q0 22 15.5 37.5t37.5 15.5h301q21 0 36.5 -15.5t15.5 -37.5v-203zM620 473h-308q1 4 1 8v50q0 60 34 102.5t83 42.5q76 0 104 -50q7 -13 21 -17t26.5 3t16.5 21.5
t-3 26.5q-48 87 -165 87q-79 0 -135 -65q-53 -63 -53 -151v-50q0 -12 7 -21q-24 -14 -38.5 -38t-14.5 -53v-217q0 -43 30.5 -74t73.5 -31h320q43 0 73.5 31t30.5 74v217q0 43 -30.5 73.5t-73.5 30.5zM460.5 220q-17.5 0 -30 13t-12.5 30.5t12.5 30t30 12.5t30 -12.5
t12.5 -30t-12.5 -30.5t-30 -13zM460 350q-35 0 -60 -25.5t-25 -61t25 -61t60 -25.5t60 25.5t25 61t-25 61t-60 25.5z" />
    <glyph glyph-name="uniE636" unicode="&#xe636;" horiz-adv-x="5413" 
d="M1315.5 74q-128.5 0 -219.5 91t-91 219t91 219t219.5 91t219.5 -91t91 -219t-91 -219t-219.5 -91zM1316 601q-90 0 -153.5 -63.5t-63.5 -153.5t63.5 -153.5t153.5 -63.5t153.5 63.5t63.5 153.5t-63.5 153.5t-153.5 63.5zM2712.5 74q-128.5 0 -219.5 91t-91 219t91 219
t219.5 91t219.5 -91t91 -219t-91 -219t-219.5 -91zM2712.5 601q-89.5 0 -153.5 -63.5t-64 -153.5t64 -153.5t153.5 -63.5t153.5 63.5t64 153.5t-64 153.5t-153.5 63.5zM4109 74q-128 0 -219 91t-91 219t91 219t219 91t219 -91t91 -219t-91 -219t-219 -91zM4109 601
q-90 0 -153.5 -63.5t-63.5 -153.5t63.5 -153.5t153.5 -63.5t153.5 63.5t63.5 153.5t-63.5 153.5t-153.5 63.5z" />
    <glyph glyph-name="uniE637" unicode="&#xe637;" horiz-adv-x="1451" 
d="M738 132l357 504h-713z" />
    <glyph glyph-name="uniE638" unicode="&#xe638;" horiz-adv-x="1451" 
d="M734 636l-357 -504h713z" />
    <glyph glyph-name="uniE639" unicode="&#xe639;" 
d="M740 566l-46 46l-182 -182l-182 182l-46 -46l182 -182l-182 -182l46 -46l182 182l182 -182l46 46l-182 182zM967 384q0 93 -36 177t-97 145t-145 97t-177 36t-177 -36t-145 -97t-97 -145t-36 -177t36 -177t97 -145t145 -97t177 -36t177 36t145 97t97 145t36 177zM0 384
q0 139 68.5 257t186.5 186.5t257 68.5t257 -68.5t186.5 -186.5t68.5 -257t-68.5 -257t-186.5 -186.5t-257 -68.5t-257 68.5t-186.5 186.5t-68.5 257z" />
    <glyph glyph-name="uniE63A" unicode="&#xe63a;" horiz-adv-x="1366" 
d="M883 423q-13 0 -22 -9t-9 -21.5t9 -21.5t22 -9h151q13 0 22 9t9 21.5t-9 21.5t-22 9h-151zM792 544q-13 0 -21.5 -9t-8.5 -21.5t8.5 -21t21.5 -8.5h242q13 0 22 8.5t9 21t-9 21.5t-22 9h-242zM673 208q0 -16 -11 -27t-27 -11h-217q-15 0 -26 11t-11 27v147q0 15 11 26.5
t26 11.5h217q16 0 27 -11.5t11 -26.5v-147zM414 444v44q0 46 26 78.5t64 32.5q58 0 79 -38q5 -10 16 -13t20.5 2.5t12.5 16t-2 20.5q-37 66 -126 66q-61 0 -103 -50q-41 -48 -41 -115v-57q-35 -20 -35 -67v-165q0 -34 23 -57t56 -23h245q33 0 56 23t23 57v165q0 33 -23 56.5
t-56 23.5h-235zM526.5 251q-13.5 0 -23 9.5t-9.5 23t9.5 23.5t23 10t23 -10t9.5 -23.5t-9.5 -23t-23 -9.5zM526.5 363q-32.5 0 -55.5 -23.5t-23 -56t23 -56t55.5 -23.5t55.5 23.5t23 56t-23 56t-55.5 23.5zM307 696h766q25 0 42.5 -18t17.5 -43v-519q0 -25 -17.5 -42.5
t-42.5 -17.5h-766q-25 0 -43 17.5t-18 42.5v519q0 25 18 43t43 18zM186 116q0 -50 35.5 -85.5t85.5 -35.5h766q50 0 85.5 35.5t35.5 85.5v519q0 50 -35.5 85.5t-85.5 35.5h-766q-50 0 -85.5 -35.5t-35.5 -85.5v-519z" />
    <glyph glyph-name="uniE63B" unicode="&#xe63b;" horiz-adv-x="1366" 
d="M967 570q-46 85 -126.5 131t-177.5 46q-143 0 -231 -81q-90 -81 -113 -201q-68 -20 -108.5 -82t-40.5 -138q0 -103 61 -167t155 -64h542q80 0 145 39.5t100.5 105t35.5 140.5q0 107 -70 185.5t-172 85.5zM914 72l-522 3q-69 10 -115 56t-46 114q0 62 40.5 111t101.5 67
q26 129 100 190q86 70 194 70q80 0 153.5 -49.5t115.5 -125.5q97 -5 156.5 -63.5t59.5 -149.5q0 -94 -71 -158.5t-167 -64.5zM799 311q0 -13 -8.5 -21.5t-20.5 -8.5h-333q-12 0 -21 8.5t-9 21.5q0 12 9 20.5t21 8.5h333q12 0 20.5 -8.5t8.5 -20.5zM983 311q0 -13 -9 -21.5
t-21 -8.5h-59q-13 0 -21.5 8.5t-8.5 21.5q0 12 8.5 20.5t21.5 8.5h59q12 0 21 -8.5t9 -20.5zM799 192q0 -12 -8.5 -20.5t-20.5 -8.5h-333q-12 0 -21 8.5t-9 20.5t9 21t21 9h333q12 0 20.5 -9t8.5 -21zM983 192q0 -12 -9 -20.5t-21 -8.5h-59q-13 0 -21.5 8.5t-8.5 20.5
t8.5 21t21.5 9h59q12 0 21 -9t9 -21z" />
    <glyph glyph-name="uniE63C" unicode="&#xe63c;" 
d="M768 722q-66 58 -202 58h-271q-44 0 -57 -11q-12 -11 -12 -44v-691q0 -19 11 -32q10 -14 37 -14q26 0 37 12t11 34v262h244q268 0 268 244q0 124 -66 182zM699 413q-40 -39 -133 -39h-244v326h244q84 0 128 -38q45 -37 45 -123t-40 -126z" />
    <glyph glyph-name="uniE63D" unicode="&#xe63d;" horiz-adv-x="1434" 
d="M801 159l-109 -110l-110 110q47 37 110 37t109 -37zM986 344l-64 -64q-99 87 -230.5 87t-230.5 -87l-64 64q125 114 294.5 114t294.5 -114zM1171 529l-65 -65q-84 80 -191 122t-223.5 42t-223.5 -42t-191 -122l-65 64q98 93 221.5 142t258 49t258 -49t221.5 -141z" />
    <glyph glyph-name="uniE63E" unicode="&#xe63e;" horiz-adv-x="1309" 
d="M1016 780h-746q-55 0 -93.5 -39t-38.5 -93v-495q0 -54 38.5 -93t93.5 -39h746q55 0 94 39t39 93v495q0 54 -39 93t-94 39zM1118 519h-35v-62h35v-66h-35v-238q0 -27 -19.5 -46.5t-47.5 -19.5h-746q-28 0 -47 19.5t-19 46.5v238h-57v66h57v62h-57v66h57v63q0 27 19 46.5
t47 19.5h746q28 0 47.5 -19.5t19.5 -46.5v-63h35v-66zM1083 585h35v-66h-35v66zM204 585h879v-66h-879v66zM147 585h57v-66h-57v66zM1083 457h35v-66h-35v66zM204 457h879v-66h-879v66zM147 457h57v-66h-57v66z" />
    <glyph glyph-name="uniE63F" unicode="&#xe63f;" horiz-adv-x="1856" 
d="M1664 896h-1472q-79 0 -135.5 -56.5t-56.5 -135.5v-640q0 -79 56.5 -135.5t135.5 -56.5h1472q79 0 135.5 56.5t56.5 135.5v640q0 79 -56.5 135.5t-135.5 56.5zM498 652q0 45 16 64q17 18 63 18h246q45 0 62 -18q18 -18 18 -64v-239q0 -46 -18 -65q-17 -19 -62 -19h-246
q-46 0 -63 19q-16 20 -16 65v239zM404 245q-18 3 -24 18q-6 9 -10 18q-3 6 -8 17v-263q0 -26 -10 -35q-9 -9 -29 -9t-29 9q-10 9 -10 35v224q-14 -32 -17 -39q-8 -17 -22 -40q-11 -21 -30 -28q-17 -7 -37 6q-19 14 -18 34t13 41q30 52 54 98q24 47 44 106h-60q-20 0 -29 12
t-9 30q0 20 8 32q9 12 30 12h73v85q-12 -3 -24 -5q-13 -2 -20 -3q-53 -7 -54 34q-4 42 44 50q42 7 82 18q36 10 67 25q21 11 38 5t25 -27q5 -23 -2 -35.5t-33 -21.5q-5 -2 -22 -9q-11 -4 -23 -8v-108h65q22 0 29.5 -12t7.5 -32q0 -18 -8 -30t-29 -12h-62q11 -16 23 -33
q9 -11 21 -28q14 -21 18 -28q10 -15 18 -31q8 -15 7 -34q-2 -18 -14 -28q-16 -14 -34 -10zM628 220q-12 -29 -27 -62q-10 -23 -25 -52q-11 -20 -27 -46q-12 -19 -28 -41q-34 -47 -71 -15q-18 16 -20 33q-1 17 17 39q30 40 53 86q23 45 42 97q8 22 25 32q17 8 37 1
q21 -9 26.5 -29.5t-2.5 -42.5zM936 29q-3 -18 -30 -30q-26 -13 -41 -4q-16 8 -27 35q-5 9 -9 18.5t-9 20t-7 15.5q-18 39 -20 42q-10 22 -19 38t-24 41q-16 24 -16 40q0 17 22 36q10 8 19 11q9 5 18 3t18.5 -10.5t21.5 -26.5q16 -27 26 -44q9 -17 21 -40q4 -8 11.5 -24.5
t8.5 -18.5q12 -23 26 -55q13 -29 10 -47zM1704 396v-1q-9 -13 -16 -19q-9 -8 -18 -8q-9 -1 -21 5q-11 5 -28 18q-24 17 -43 36q1 -6 1 -16q1 -6 1 -18l-12 -247q-3 -70 -35 -103q-31 -33 -92 -33q-18 0 -37 2q-17 2 -40 6q-25 6 -39 10q-20 5 -33 10q-29 10 -41 24t-6 41
q4 12 12 19q7 8 19 12q10 4 21 4q12 -1 22 -5h-1q31 -13 61 -20q27 -7 46 -7q23 0 34 11t12 29q2 42 6 114l3 60q2 40 3 55q0 10 -3 13q-4 3 -10 3h-182q-9 -75 -25 -131q-17 -57 -44 -103q-28 -44 -70 -82q-43 -38 -101 -71q-29 -15 -44 -12q-16 3 -30 26q-14 25 -5 43
q8 18 32 30l-1 -1q41 23 72 50q31 26 54 62q22 34 38 81q14 46 24 108h-94q-16 0 -26 4q-12 4 -17 15q-8 -7 -13 -11q-1 0 -13 -10q-49 -38 -79 5q-12 17 -9 36q4 20 25 33q34 24 64 55q29 30 57 66q26 35 49 73q21 34 42 75q8 19 28 29q20 9 43 -4h-1q18 -10 22 -28
q4 -19 -7 -42v-1q-53 -111 -130 -199h363h16q10 -1 15 -2q-37 44 -69 96q-33 52 -56 108q-13 33 -5 49q7 17 28 26q25 8 40.5 -1.5t25.5 -32.5q15 -39 36 -75q19 -35 46 -72q24 -33 52 -62q30 -30 59 -50q26 -19 31 -36q7 -18 -7 -39zM802 618v-194q0 -15 -17 -15h-170
q-10 0 -13 3q-3 4 -3 12v194q0 15 16 15h170q17 0 17 -15z" />
    <glyph glyph-name="uniE640" unicode="&#xe640;" 
d="M896 497q0 29 -21 50t-50 21h-20q17 27 17 60q0 48 -33.5 81t-81.5 33q-44 0 -81 -39q-24 -26 -43 -68q-18 5 -37.5 5t-36.5 -5q-20 42 -44 68q-36 39 -81 39q-39 0 -70.5 -24t-40.5 -62q-1 -5 1.5 -9.5t7.5 -5.5q13 -2 27 -7q5 -1 9.5 1.5t6.5 7.5q5 20 21.5 33.5
t37.5 13.5q44 0 81 -87q-3 -7 -4 -14v-1q-1 -2 -1 -3q0 -8 4 -16q-37 1 -97 33q-71 39 -131 39q-30 0 -55 -10t-33.5 -16.5t-13.5 -12.5q-7 -9 -6 -20t10 -18q7 -6 17 -6q12 0 20 10q18 21 60 21q46 0 107 -33q72 -40 124 -40q6 0 13 1q3 -3 7 -3h33v-92h-270v75q0 7 5 12
t12 5h98q5 0 8.5 4t3.5 9q0 8 -7 11q-17 7 -30 14q-14 8 -30 15q-2 1 -4 1h-39q-29 0 -49.5 -21t-20.5 -50v-116q0 -5 3.5 -8.5t8.5 -3.5h32v-250q0 -29 20.5 -50t49.5 -21h471q29 0 50 21t21 50v250h32q5 0 8.5 3.5t3.5 8.5v116zM794 372v-251q0 -7 -5 -12t-12 -5h-205v268
h222zM840 494v-75h-268v92h251q7 0 12 -5t5 -12zM572 580q-10 -4 -23 -4q-5 0 -10 1q-2 4 -4 6q7 2 14 2q13 0 23 -5zM706 687q25 0 42.5 -17.5t17.5 -42.5t-17.5 -42.5t-42.5 -17.5h-78q4 8 4 16q0 9 -4 18q36 86 78 86zM517 372v-268h-205q-7 0 -12 5t-5 12v251h222z" />
    <glyph glyph-name="uniE641" unicode="&#xe641;" 
d="M892 504q-27 38 -76.5 108.5t-65.5 92.5q-7 12 -20 12h-454q-10 0 -17 -7v0q-2 -2 -3 -4q-19 -30 -60.5 -98t-64.5 -104q-8 -14 3 -27l1 -1q62 -80 180 -231t173 -219q7 -10 17 -8q9 0 15 8q64 77 187 227.5t182 222.5l2 2q10 13 1 26zM827 522h-137q7 19 23 61.5
t24 64.5q15 -21 45 -62.5t45 -63.5zM508 659q19 -27 101 -149h-206q69 98 105 149zM621 465q-93 -246 -121 -321q-74 200 -120 321h241zM649 533q-37 53 -97 138h149q-10 -26 -27.5 -73t-24.5 -65zM364 533q-27 72 -53 138h149q-46 -67 -96 -138zM274 648q24 -60 49 -126
h-126q34 55 77 126zM338 465q48 -125 122 -333q-145 184 -263 333h141zM664 465h152q-82 -98 -275 -333q21 59 123 333z" />
    <glyph glyph-name="uniE642" unicode="&#xe642;" horiz-adv-x="1051" 
d="M524.5 864q-99.5 0 -191 -38t-157.5 -102t-105 -153t-39 -187t39 -187t105 -153t157.5 -102t191 -38t190.5 38t157 102t105.5 153t39.5 187t-39.5 187t-105.5 153t-157 102t-190.5 38zM561 101h-76v347h76v-347zM559 554q-15 -15 -34.5 -15t-34.5 15t-15 37t15 36.5
t34.5 14.5t34.5 -14.5t15 -36.5t-15 -37z" />
    <glyph glyph-name="uniE643" unicode="&#xe643;" 
d="M706 320q43 62 43 137q0 98 -69.5 168t-167.5 70t-167.5 -70t-69.5 -168q0 -74 43 -135l-103 -158l127 10l43 -91l76 142q25 -5 51 -5t50 5l77 -141l43 91l127 -10zM385 153l-25 53l-85 -6l62 97q39 -42 93 -62zM314 463q0 82 58 140t140 58t140 -58t58 -139.5t-58 -140
t-140 -58.5t-140 58t-58 140zM662 206l-25 -53l-44 81q53 20 93 62l63 -96zM512 293q68 0 115 47.5t47 115t-47 115.5t-115 48t-115 -47.5t-47 -114.5t47 -115.5t115 -48.5zM409 530h40l43 -97l20 -47l20 47l43 97h40l-83 -170h-40z" />
    <glyph glyph-name="uniE644" unicode="&#xe644;" 
d="M341 555h342v-73h-342v73zM341 421h342v-74h-342v74zM341 286h342v-73h-342v73z" />
    <glyph glyph-name="uniE645" unicode="&#xe645;" 
d="M341 555h147v-147h-147v147zM536 555h147v-147h-147v147zM536 360h147v-147h-147v147zM341 360h147v-147h-147v147z" />
    <glyph glyph-name="uniE646" unicode="&#xe646;" horiz-adv-x="1856" 
d="M1110 234v-132h77v144h-64q-13 0 -13 -12zM1280 246h77v-144h-77v144zM1664 896h-1472q-79 0 -135.5 -56.5t-56.5 -135.5v-640q0 -79 56.5 -135.5t135.5 -56.5h1472q79 0 135.5 56.5t56.5 135.5v640q0 79 -56.5 135.5t-135.5 56.5zM941 368q10 16 32 29q19 9 51 29l24 12
q16 8 24 13t22.5 14.5t22.5 14.5q25 19 41 35l4 3h-154q-27 0 -35 13q-10 15 -10 35.5t10 35.5q8 12 35 12h138q-27 37 -55 61q-25 26 -25 42q0 14 16 35q32 33 80 -10q34 -34 76 -92q15 -20 10 -36h160q0 24 26 45q11 9 35 39q24 32 29 41q17 26 35 32q16 0 35 -9
q22 -17 22 -29q4 -12 -16 -42q-6 -9 -25 -35q-5 -7 -17 -20.5t-18 -21.5h128q22 0 35 -12q9 -15 9 -35.5t-9 -35.5q-9 -13 -35 -13h-160q38 -25 54 -35q11 -6 45 -32q24 -14 41 -32q13 -9 45 -35q23 -19 29 -35q3 -9 -13 -35q-15 -15 -32 -20q-18 -4 -41 20q-56 44 -90 67
q-80 53 -90 61q-19 12 -22 16l-1 1l-1 1l-1 1l-1 1l-2 2l-1 1l-1 1l-1 1l-2 1l-1 1l-1 1q-5 6 0 16q0 10 10 20l6 9h-179q18 -17 13 -32q0 -15 -26 -35q-19 -16 -51 -42q-16 -12 -48 -32l-48 -28q-9 -6 -28.5 -16.5t-29.5 -15.5q-28 -16 -48 -16q-17 6 -25 25q-9 27 0 45z
M368 320q-2 2 -3.5 7.5t-2.5 8.5q-5 10 -10 19q-6 13 -10 16q-6 7 -6 13v-346q0 -25 -9.5 -34.5t-35.5 -9.5q-21 0 -35 9q-13 13 -13 35v298q-3 -8 -8 -22.5t-8 -22.5q-3 -6 -8 -19t-8 -19q-14 -34 -32 -39q-23 -5 -35 7q-34 19 -10 77q5 9 13 26.5t13 27.5q3 8 11 26.5
t11 31.5q4 11 12 31.5t11 32.5q2 7 10.5 33t11.5 40h-54q-24 0 -32 13q-10 14 -10 35q0 45 45 45h67v83q0 55 45 55q27 0 35 -13q10 -15 10 -39v-83h48q26 0 35 -13q10 -14 10 -32q0 -20 -10 -35q-9 -13 -35 -13h-48v-6q16 -29 54 -80q19 -26 51 -77q21 -30 16 -51
q-5 -25 -16 -32q-19 -14 -38 -10q-7 -7 -15.5 0.5t-16.5 25.5zM899 26q-8 -14 -14 -20.5t-15 -8.5q-15 -5 -41 13q-48 28 -90 70q-29 26 -80 90q-52 -53 -99 -87q-35 -25 -112 -77q-16 -12 -38 -6q-15 4 -26 32q-5 20 0 35q5 21 26 26q38 19 54 32q32 19 48 35q16 13 45 42
q4 5 19 21t22 27q-44 71 -83 163q-35 91 -54 205q-24 0 -32 12q-10 10 -10 35.5t13 38.5t35 13h301q56 0 77 -26q18 -22 13 -77q-13 -57 -20 -89q-19 -64 -32 -93q-25 -64 -41 -93q-27 -54 -51 -86q43 -53 80 -90q35 -35 83 -67q17 -13 22 -29q12 -19 0 -41zM1696 22
q-9 -12 -35 -12h-685q-27 0 -35 12q-10 15 -10 35.5t10 35.5q8 13 35 13h42v147q0 48 19 67t64 19h425q44 0 68 -19q19 -15 19 -67v-147h48q26 0 35 -13q10 -15 10 -35q0 -26 -10 -36zM768 605q4 13 -6 13h-202q13 -58 19 -84q13 -51 23 -73q14 -34 28 -67q5 -10 36 -64
q44 71 64 131q26 78 38 144zM1507 246h-57v-144h73v132q0 5 -4.5 8.5t-11.5 3.5z" />
  </font>
</defs>
</svg>
